<?xml version="1.0" encoding="UTF-8"?>
<svg width="53px" height="24px" viewBox="0 0 53 24" version="1.1" xmlns="http://www.w3.org/2000/svg" xmlns:xlink="http://www.w3.org/1999/xlink">
    <!-- Generator: Sketch 46.2 (44496) - http://www.bohemiancoding.com/sketch -->
    <title>Logo / Primary</title>
    <desc>Created with Sketch.</desc>
    <defs></defs>
    <g id="Final" stroke="none" stroke-width="1" fill="none" fill-rule="evenodd">
        <g id="Website-–-Desktop-HD" transform="translate(-40.000000, -24.000000)" fill="#601BF5">
            <g id="Header" transform="translate(0.000000, 18.000000)">
                <g id="Logo-/-Primary" transform="translate(40.000000, 6.000000)">
                    <g>
                        <path d="M15.8626609,13.5737705 C15.4849785,13.1967213 15.0128755,12.9139344 14.5407725,12.7254098 C13.7854077,12.442623 13.5965665,12.442623 11.6137339,12.442623 L8.30901288,12.442623 L8.30901288,20.454918 L11.2360515,20.454918 C13.9742489,20.454918 14.3519313,20.3606557 15.2961373,19.795082 C16.2403433,19.2295082 16.9012876,17.9098361 16.9012876,16.4959016 C16.9012876,15.2704918 16.5236052,14.2336066 15.8626609,13.5737705 M15.2017167,3.39344262 C14.8240343,3.01639344 14.3519313,2.73360656 13.8798283,2.63934426 C13.2188841,2.45081967 12.8412017,2.45081967 10.9527897,2.45081967 L8.30901288,2.45081967 L8.30901288,9.80327869 L11.5193133,9.80327869 C12.8412017,9.80327869 13.8798283,9.6147541 14.5407725,9.33196721 C15.5793991,8.86065574 16.2403433,7.6352459 16.2403433,6.12704918 C16.2403433,4.99590164 15.8626609,4.05327869 15.2017167,3.39344262 M21.055794,20.2663934 C20.6781116,21.0204918 20.0171674,21.6803279 19.2618026,22.1516393 C18.4120172,22.6229508 17.5622318,22.9057377 16.6180258,23 L14.0686695,23 L0,23 L0,20.5491803 L1.88841202,20.5491803 C2.45493562,20.5491803 2.83261803,20.5491803 3.11587983,20.454918 C3.30472103,20.3606557 3.49356223,20.1721311 3.58798283,19.9836066 C3.68240343,19.7008197 3.77682403,19.5122951 3.77682403,19.2295082 L3.77682403,18.2868852 L3.77682403,17.25 L3.77682403,5.8442623 L3.77682403,4.80737705 L3.77682403,3.8647541 C3.77682403,3.58196721 3.68240343,3.39344262 3.58798283,3.11065574 C3.30472103,2.63934426 2.92703863,2.45081967 1.88841202,2.45081967 L0,2.45081967 L0,0 L10.7639485,0 L13.4077253,0 C15.8626609,0.0942622951 17.6566524,0.56557377 19.167382,1.60245902 C20.583691,2.63934426 21.3390558,4.05327869 21.3390558,5.8442623 C21.3390558,7.35245902 20.8669528,8.57786885 19.7339056,9.5204918 C18.8841202,10.2745902 18.3175966,10.557377 16.806867,11.0286885 C18.4120172,11.4057377 18.7896996,11.5942623 19.7339056,12.1598361 C21.1502146,13.0081967 22,14.7991803 22,16.8729508 C21.9055794,18.0983607 21.6223176,19.2295082 21.055794,20.2663934" id="B" fill-rule="nonzero"></path>
                        <path d="M23.0983607,23 L23.0983607,20.4879227 L25.2622951,20.4879227 C25.852459,20.4879227 26.147541,20.4879227 26.442623,20.3913043 C26.6393443,20.294686 26.7377049,20.1014493 26.8360656,19.9082126 C26.9344262,19.7149758 27.0327869,19.4251208 27.0327869,19.1352657 L27.0327869,18.2657005 L27.0327869,17.2995169 L27.0327869,8.41062802 L23,8.41062802 L23,6.09178744 C26.2459016,6.09178744 27.3278689,5.41545894 28.1147541,3 L31.1639344,3 L31.1639344,17.2995169 L31.1639344,18.2657005 L31.1639344,19.1352657 C31.1639344,19.3285024 31.2622951,19.6183575 31.3606557,19.9082126 C31.557377,20.3913043 31.9508197,20.4879227 33.0327869,20.4879227 L35,20.4879227 L35,23 L23.0983607,23 Z" id="_x31_" fill-rule="nonzero"></path>
                        <path d="M52.6201117,19.4931507 C52.2402235,22.4657534 50.4357542,24 47.5865922,24 C45.972067,24 44.6424581,23.5205479 41.603352,22.0821918 C40.7486034,21.6027397 40.1787709,21.5068493 39.7988827,21.5068493 C38.849162,21.5068493 38.2793296,22.0821918 38.2793296,23.1369863 L38.2793296,23.6164384 L36,23.6164384 L36,22.8493151 C36,21.6027397 36.1899441,20.5479452 36.6648045,19.3972603 C37.424581,17.4794521 38.6592179,16.2328767 41.5083799,14.890411 C42.7430168,14.2191781 43.6927374,13.8356164 44.1675978,13.5479452 C44.9273743,13.1643836 45.4972067,12.6849315 46.0670391,12.2054795 C46.7318436,11.5342466 47.2067039,10.3835616 47.2067039,9.42465753 C47.2067039,7.12328767 45.5921788,5.68493151 42.8379888,5.68493151 C40.5586592,5.68493151 39.2290503,6.54794521 38.7541899,8.36986301 C39.2290503,7.89041096 39.5139665,7.79452055 39.8938547,7.79452055 C41.1284916,7.79452055 42.0782123,8.75342466 42.0782123,10.1917808 C42.0782123,11.8219178 41.0335196,12.8767123 39.5139665,12.8767123 C37.6145251,12.8767123 36.2849162,11.4383562 36.2849162,9.23287671 C36.2849162,7.60273973 37.0446927,5.97260274 38.3743017,4.91780822 C39.7988827,3.57534247 41.5083799,3 44.0726257,3 C48.8212291,3 51.9553073,5.68493151 51.9553073,9.61643836 C51.9553073,12.8767123 50.150838,14.6986301 45.7821229,15.9452055 C41.698324,17.0958904 41.3184358,17.1917808 39.8938547,18.3424658 C39.2290503,18.9178082 38.9441341,19.3013699 38.6592179,20.3561644 C39.7039106,19.4931507 40.3687151,19.2054795 41.7932961,19.2054795 C42.1731844,19.2054795 42.6480447,19.2054795 43.027933,19.3013699 L45.877095,19.7808219 C46.5418994,19.8767123 47.1117318,19.9726027 47.6815642,19.9726027 C49.8659218,19.9726027 50.8156425,19.0136986 50.9106145,16.4246575 L53,16.4246575 C52.8100559,17.9589041 52.8100559,18.4383562 52.6201117,19.4931507" id="_x32_" fill-rule="nonzero"></path>
                    </g>
                </g>
            </g>
        </g>
    </g>
</svg>