<svg width='200' height='200' fill="#000000" xmlns="http://www.w3.org/2000/svg" viewBox="0 0 100 100" x="0px" y="0px"><title>bot2_sleep</title><g fill="#444444" fill-rule="evenodd"><path d="M20,60 C20,51.7157288 26.7081139,45 35.0050808,45 L64.9949192,45 C73.2819965,45 80,51.7139073 80,60 C80,68.2842712 73.2918861,75 64.9949192,75 L35.0050808,75 C26.7180035,75 20,68.2860927 20,60 Z M32.1818182,62 L39.8181818,62 L42,62 L42,58 L39.8181818,58 L32.1818182,58 L30,58 L30,62 L32.1818182,62 Z M60,62 L68,62 L70,62 L70,58 L68,58 L60,58 L58,58 L58,62 L60,62 Z"/><path d="M81.1374158,30.3397781 C90,39.0153006 90,50 90,50 L90,70 C90,70 90,90 50,90 C10,90 10,70 10,70 L10,50 C10,50 10,39.0044239 18.8757506,30.3268977 L8.26908535,12.0020725 C7.71578346,11.0461491 8.04199423,9.82257681 8.99769749,9.26914743 C9.95340076,8.71571805 11.1766911,9.04200398 11.729993,9.99792746 L21.970129,27.6895106 C27.8958591,23.2892727 36.7550811,20 50,20 C63.2552955,20 72.1180196,23.2944286 78.043793,27.6998546 L88.2922771,9.99792746 C88.8457065,9.04200398 90.0692787,8.71571805 91.0252022,9.26914743 C91.9811257,9.82257681 92.3074116,11.0461491 91.7539822,12.0020725 L81.1374158,30.3397781 Z M14,50 L14,70 C14,69.9724452 14.0069729,70.0770394 14.037923,70.2936896 C14.1025381,70.7459952 14.2244193,71.2741473 14.4197332,71.8600889 C15.0099728,73.6308077 16.093439,75.4365847 17.8284271,77.1715729 C23.24535,82.5884957 33.4798628,86 50,86 C66.5201372,86 76.75465,82.5884957 82.1715729,77.1715729 C83.906561,75.4365847 84.9900272,73.6308077 85.5802668,71.8600889 C85.7755807,71.2741473 85.8974619,70.7459952 85.962077,70.2936896 C85.9930271,70.0770394 86,69.9724452 86,70 L86,50 C86,49.8884469 85.9860708,49.5750394 85.9398931,49.0901739 C85.8573922,48.2239138 85.706612,47.2438431 85.4702518,46.1802218 C84.7903506,43.1206666 83.5663124,40.0605712 81.6717988,37.2188008 C76.1879285,28.9929953 66.2019379,24 50,24 C33.7980621,24 23.8120715,28.9929953 18.3282012,37.2188008 C16.4336876,40.0605712 15.2096494,43.1206666 14.5297482,46.1802218 C14.293388,47.2438431 14.1426078,48.2239138 14.0601069,49.0901739 C14.0139292,49.5750394 14,50 14,50 Z"/></g></svg>
